<svg xmlns="http://www.w3.org/2000/svg" xmlns:xlink="http://www.w3.org/1999/xlink" width="600" zoomAndPan="magnify" viewBox="0 0 1440 809.999993" height="338" preserveAspectRatio="xMidYMid meet" version="1.0"><defs><g/><clipPath id="13693a5bb9"><path d="M 655 70 L 1000 70 L 1000 386.324219 L 655 386.324219 Z M 655 70 " clip-rule="nonzero"/></clipPath><clipPath id="be3c33add6"><path d="M 425.789062 104 L 675 104 L 675 309 L 425.789062 309 Z M 425.789062 104 " clip-rule="nonzero"/></clipPath></defs><g fill="#220204" fill-opacity="1"><g transform="translate(89.471075, 599.663627)"><g><path d="M 101.457031 0 L 132.230469 0 L 79.449219 -130.550781 L 52.78125 -130.550781 L 1.492188 0 L 31.519531 0 L 40.472656 -24.617188 L 92.320312 -24.617188 Z M 66.394531 -96.046875 L 83.554688 -49.238281 L 49.238281 -49.238281 Z M 66.394531 -96.046875 "/></g></g></g><g fill="#220204" fill-opacity="1"><g transform="translate(223.36356, 599.663627)"><g><path d="M 86.722656 0 L 118.242188 0 L 89.335938 -49.238281 C 103.882812 -56.324219 113.207031 -70.125 113.207031 -87.28125 C 113.207031 -112.460938 93.625 -130.550781 67.511719 -130.550781 L 14.921875 -130.550781 L 14.921875 0 L 43.082031 0 L 43.082031 -44.386719 L 61.171875 -44.386719 Z M 43.082031 -104.441406 L 65.648438 -104.441406 C 77.585938 -104.441406 84.484375 -97.167969 84.484375 -87.46875 C 84.484375 -77.585938 77.585938 -70.496094 65.648438 -70.496094 L 43.082031 -70.496094 Z M 43.082031 -104.441406 "/></g></g></g><g fill="#220204" fill-opacity="1"><g transform="translate(346.62666, 599.663627)"><g><path d="M 86.722656 0 L 118.242188 0 L 89.335938 -49.238281 C 103.882812 -56.324219 113.207031 -70.125 113.207031 -87.28125 C 113.207031 -112.460938 93.625 -130.550781 67.511719 -130.550781 L 14.921875 -130.550781 L 14.921875 0 L 43.082031 0 L 43.082031 -44.386719 L 61.171875 -44.386719 Z M 43.082031 -104.441406 L 65.648438 -104.441406 C 77.585938 -104.441406 84.484375 -97.167969 84.484375 -87.46875 C 84.484375 -77.585938 77.585938 -70.496094 65.648438 -70.496094 L 43.082031 -70.496094 Z M 43.082031 -104.441406 "/></g></g></g><g fill="#220204" fill-opacity="1"><g transform="translate(469.889759, 599.663627)"><g><path d="M 92.320312 -130.550781 L 92.320312 -80.195312 L 43.082031 -80.195312 L 43.082031 -130.550781 L 14.921875 -130.550781 L 14.921875 0 L 43.082031 0 L 43.082031 -53.898438 L 92.320312 -53.898438 L 92.320312 0 L 120.480469 0 L 120.480469 -130.550781 Z M 92.320312 -130.550781 "/></g></g></g><g fill="#220204" fill-opacity="1"><g transform="translate(605.460564, 599.663627)"><g><path d="M 123.652344 -130.550781 L 93.4375 -130.550781 L 63.222656 -78.144531 L 33.199219 -130.550781 L 3.171875 -130.550781 L 48.675781 -52.78125 L 48.675781 0 L 77.585938 0 L 77.585938 -52.59375 Z M 123.652344 -130.550781 "/></g></g></g><g fill="#220204" fill-opacity="1"><g transform="translate(732.080306, 599.663627)"><g><path d="M 104.8125 -130.550781 L 3.917969 -130.550781 L 3.917969 -104.253906 L 40.285156 -104.253906 L 40.285156 0 L 68.445312 0 L 68.445312 -104.253906 L 104.8125 -104.253906 Z M 104.8125 -130.550781 "/></g></g></g><g fill="#220204" fill-opacity="1"><g transform="translate(840.984469, 599.663627)"><g><path d="M 92.320312 -130.550781 L 92.320312 -80.195312 L 43.082031 -80.195312 L 43.082031 -130.550781 L 14.921875 -130.550781 L 14.921875 0 L 43.082031 0 L 43.082031 -53.898438 L 92.320312 -53.898438 L 92.320312 0 L 120.480469 0 L 120.480469 -130.550781 Z M 92.320312 -130.550781 "/></g></g></g><g fill="#220204" fill-opacity="1"><g transform="translate(976.555274, 599.663627)"><g><path d="M 174.753906 0 L 154.609375 -130.550781 L 126.261719 -130.550781 L 90.828125 -50.355469 L 55.390625 -130.550781 L 27.230469 -130.550781 L 6.714844 0 L 35.433594 0 L 48.304688 -85.042969 L 87.28125 -0.1875 L 94.183594 -0.1875 L 133.164062 -85.042969 L 146.03125 0 Z M 174.753906 0 "/></g></g></g><g fill="#ec1d27" fill-opacity="1"><g transform="translate(1158.3826, 599.663627)"><g><path d="M 14.921875 0 L 43.082031 0 L 43.082031 -130.550781 L 14.921875 -130.550781 Z M 14.921875 0 "/></g></g></g><g fill="#ec1d27" fill-opacity="1"><g transform="translate(1216.564303, 599.663627)"><g><path d="M 101.457031 0 L 132.230469 0 L 79.449219 -130.550781 L 52.78125 -130.550781 L 1.492188 0 L 31.519531 0 L 40.472656 -24.617188 L 92.320312 -24.617188 Z M 66.394531 -96.046875 L 83.554688 -49.238281 L 49.238281 -49.238281 Z M 66.394531 -96.046875 "/></g></g></g><path fill="#ed1f2f" d="M 720.386719 163.171875 L 735.984375 289.164062 C 729.476562 283.527344 722.28125 277.351562 714.300781 270.476562 C 695.929688 254.660156 683.140625 239.171875 674.292969 224.8125 L 701.03125 224.8125 C 704.039062 224.8125 706.640625 222.738281 707.3125 219.8125 L 720.386719 163.171875 " fill-opacity="1" fill-rule="nonzero"/><g clip-path="url(#13693a5bb9)"><path fill="#ed1f2f" d="M 940.796875 270.476562 C 867.011719 333.984375 861.007812 339.144531 827.546875 386.355469 C 802.507812 351.039062 792.851562 339.25 758.664062 308.949219 L 785.441406 190.339844 L 814.824219 276.5625 C 815.703125 279.105469 818.046875 280.847656 820.726562 280.921875 C 823.410156 281.015625 825.859375 279.425781 826.890625 276.949219 L 848.445312 224.8125 L 925.351562 224.8125 C 928.910156 224.8125 931.796875 221.925781 931.796875 218.363281 C 931.796875 214.804688 928.910156 211.914062 925.351562 211.914062 L 844.140625 211.914062 C 841.523438 211.914062 839.179688 213.488281 838.183594 215.902344 L 821.515625 256.199219 L 790.289062 164.566406 C 789.359375 161.832031 786.730469 160.066406 783.84375 160.207031 C 780.96875 160.363281 778.53125 162.414062 777.902344 165.226562 L 749.304688 291.847656 L 728.703125 125.394531 C 728.3125 122.296875 725.761719 119.914062 722.640625 119.746094 C 719.546875 119.578125 716.726562 121.691406 716.027344 124.734375 L 695.902344 211.914062 L 667.214844 211.914062 C 649.414062 175.144531 656.824219 148.601562 656.824219 148.601562 C 656.824219 148.601562 659.390625 87.65625 728.882812 73.066406 C 798.371094 58.476562 827.546875 123.703125 827.546875 123.703125 C 827.546875 123.703125 856.710938 58.476562 926.203125 73.066406 C 995.707031 87.65625 998.273438 148.601562 998.273438 148.601562 C 998.273438 148.601562 1014.582031 206.964844 940.796875 270.476562 " fill-opacity="1" fill-rule="nonzero"/></g><g clip-path="url(#be3c33add6)"><path fill="#ec1d27" d="M 667.214844 211.914062 C 669.226562 216.09375 671.574219 220.402344 674.292969 224.8125 L 647.464844 224.8125 L 627.777344 276.769531 C 626.730469 279.515625 623.960938 281.222656 621.046875 280.882812 C 618.121094 280.5625 615.785156 278.304688 615.359375 275.402344 L 605.230469 204.707031 L 585.527344 303.019531 C 584.921875 306.035156 582.269531 308.203125 579.210938 308.203125 L 579.09375 308.203125 C 575.984375 308.152344 573.359375 305.882812 572.84375 302.8125 C 563.867188 249.0625 549.738281 168.371094 542.042969 132.230469 C 535.335938 154.90625 524.816406 193.457031 517.75 220.015625 C 517.003906 222.839844 514.4375 224.8125 511.523438 224.8125 L 432.234375 224.8125 C 428.675781 224.8125 425.789062 221.925781 425.789062 218.363281 C 425.789062 214.804688 428.675781 211.914062 432.234375 211.914062 L 506.574219 211.914062 C 515.378906 178.871094 533.273438 112.882812 537.105469 107.128906 C 538.636719 104.835938 541.359375 103.710938 544.042969 104.28125 C 548.820312 105.3125 549.972656 109.914062 551.878906 117.539062 C 553.15625 122.648438 554.777344 130.078125 556.726562 139.609375 C 559.960938 155.550781 564.113281 177.699219 569.074219 205.417969 C 572.96875 227.175781 576.757812 249.039062 579.726562 266.320312 L 599.957031 165.378906 C 600.570312 162.308594 603.320312 160.105469 606.453125 160.207031 C 609.597656 160.296875 612.21875 162.632812 612.652344 165.742188 L 624.578125 248.816406 L 636.992188 216.070312 C 637.9375 213.566406 640.347656 211.914062 643.019531 211.914062 L 667.214844 211.914062 " fill-opacity="1" fill-rule="nonzero"/></g><path fill="#ec1d27" d="M 758.664062 308.949219 L 753.738281 330.746094 C 753.066406 333.703125 750.453125 335.78125 747.445312 335.78125 C 747.34375 335.78125 747.242188 335.78125 747.125 335.765625 C 743.992188 335.613281 741.4375 333.238281 741.054688 330.117188 L 735.984375 289.164062 C 744.636719 296.648438 752.101562 303.148438 758.664062 308.949219 " fill-opacity="1" fill-rule="nonzero"/><g fill="#c32b45" fill-opacity="1"><g transform="translate(8.730475, 682.48129)"><g><path d="M 5.375 0 C 4.9375 0 4.71875 -0.21875 4.71875 -0.65625 L 4.71875 -34.546875 C 4.71875 -34.984375 4.9375 -35.203125 5.375 -35.203125 L 17.09375 -35.203125 C 20.414062 -35.203125 23.054688 -34.328125 25.015625 -32.578125 C 26.972656 -30.835938 27.953125 -28.476562 27.953125 -25.5 L 27.953125 -9.703125 C 27.953125 -6.722656 26.972656 -4.359375 25.015625 -2.609375 C 23.054688 -0.867188 20.414062 0 17.09375 0 Z M 8.296875 -3.375 C 8.296875 -3.207031 8.378906 -3.125 8.546875 -3.125 L 17.25 -3.125 C 19.425781 -3.125 21.160156 -3.757812 22.453125 -5.03125 C 23.742188 -6.300781 24.390625 -8.007812 24.390625 -10.15625 L 24.390625 -24.984375 C 24.390625 -27.171875 23.75 -28.898438 22.46875 -30.171875 C 21.195312 -31.441406 19.457031 -32.078125 17.25 -32.078125 L 8.546875 -32.078125 C 8.378906 -32.078125 8.296875 -31.992188 8.296875 -31.828125 Z M 8.296875 -3.375 "/></g></g></g><g fill="#c32b45" fill-opacity="1"><g transform="translate(39.806698, 682.48129)"><g><path d="M 27.5 -32.734375 C 27.5 -32.296875 27.28125 -32.078125 26.84375 -32.078125 L 8.546875 -32.078125 C 8.378906 -32.078125 8.296875 -31.992188 8.296875 -31.828125 L 8.296875 -19.515625 C 8.296875 -19.335938 8.378906 -19.25 8.546875 -19.25 L 21.3125 -19.25 C 21.75 -19.25 21.96875 -19.035156 21.96875 -18.609375 L 21.96875 -16.796875 C 21.96875 -16.359375 21.75 -16.140625 21.3125 -16.140625 L 8.546875 -16.140625 C 8.378906 -16.140625 8.296875 -16.054688 8.296875 -15.890625 L 8.296875 -3.375 C 8.296875 -3.207031 8.378906 -3.125 8.546875 -3.125 L 26.84375 -3.125 C 27.28125 -3.125 27.5 -2.90625 27.5 -2.46875 L 27.5 -0.65625 C 27.5 -0.21875 27.28125 0 26.84375 0 L 5.375 0 C 4.9375 0 4.71875 -0.21875 4.71875 -0.65625 L 4.71875 -34.546875 C 4.71875 -34.984375 4.9375 -35.203125 5.375 -35.203125 L 26.84375 -35.203125 C 27.28125 -35.203125 27.5 -34.984375 27.5 -34.546875 Z M 27.5 -32.734375 "/></g></g></g><g fill="#c32b45" fill-opacity="1"><g transform="translate(70.229224, 682.48129)"><g><path d="M 25.796875 -35.203125 C 26.234375 -35.203125 26.453125 -34.984375 26.453125 -34.546875 L 26.453125 -32.6875 C 26.453125 -32.25 26.234375 -32.03125 25.796875 -32.03125 L 16.140625 -32.03125 C 15.972656 -32.03125 15.890625 -31.945312 15.890625 -31.78125 L 15.890625 -0.65625 C 15.890625 -0.21875 15.671875 0 15.234375 0 L 12.96875 0 C 12.53125 0 12.3125 -0.21875 12.3125 -0.65625 L 12.3125 -31.78125 C 12.3125 -31.945312 12.226562 -32.03125 12.0625 -32.03125 L 2.8125 -32.03125 C 2.375 -32.03125 2.15625 -32.25 2.15625 -32.6875 L 2.15625 -34.546875 C 2.15625 -34.984375 2.375 -35.203125 2.8125 -35.203125 Z M 25.796875 -35.203125 "/></g></g></g><g fill="#c32b45" fill-opacity="1"><g transform="translate(98.841477, 682.48129)"><g><path d="M 27.5 -32.734375 C 27.5 -32.296875 27.28125 -32.078125 26.84375 -32.078125 L 8.546875 -32.078125 C 8.378906 -32.078125 8.296875 -31.992188 8.296875 -31.828125 L 8.296875 -19.515625 C 8.296875 -19.335938 8.378906 -19.25 8.546875 -19.25 L 21.3125 -19.25 C 21.75 -19.25 21.96875 -19.035156 21.96875 -18.609375 L 21.96875 -16.796875 C 21.96875 -16.359375 21.75 -16.140625 21.3125 -16.140625 L 8.546875 -16.140625 C 8.378906 -16.140625 8.296875 -16.054688 8.296875 -15.890625 L 8.296875 -3.375 C 8.296875 -3.207031 8.378906 -3.125 8.546875 -3.125 L 26.84375 -3.125 C 27.28125 -3.125 27.5 -2.90625 27.5 -2.46875 L 27.5 -0.65625 C 27.5 -0.21875 27.28125 0 26.84375 0 L 5.375 0 C 4.9375 0 4.71875 -0.21875 4.71875 -0.65625 L 4.71875 -34.546875 C 4.71875 -34.984375 4.9375 -35.203125 5.375 -35.203125 L 26.84375 -35.203125 C 27.28125 -35.203125 27.5 -34.984375 27.5 -34.546875 Z M 27.5 -32.734375 "/></g></g></g><g fill="#c32b45" fill-opacity="1"><g transform="translate(129.264003, 682.48129)"><g><path d="M 15.4375 0.453125 C 13.09375 0.453125 11.03125 -0.00390625 9.25 -0.921875 C 7.476562 -1.847656 6.097656 -3.15625 5.109375 -4.84375 C 4.117188 -6.539062 3.625 -8.492188 3.625 -10.703125 L 3.625 -24.53125 C 3.625 -26.71875 4.117188 -28.644531 5.109375 -30.3125 C 6.097656 -31.988281 7.476562 -33.285156 9.25 -34.203125 C 11.03125 -35.128906 13.09375 -35.59375 15.4375 -35.59375 C 17.78125 -35.59375 19.835938 -35.140625 21.609375 -34.234375 C 23.390625 -33.335938 24.773438 -32.066406 25.765625 -30.421875 C 26.753906 -28.773438 27.25 -26.878906 27.25 -24.734375 C 27.25 -24.429688 27.03125 -24.25 26.59375 -24.1875 L 24.34375 -24.03125 L 24.1875 -24.03125 C 24.050781 -24.03125 23.929688 -24.0625 23.828125 -24.125 C 23.734375 -24.195312 23.6875 -24.269531 23.6875 -24.34375 L 23.6875 -24.640625 C 23.6875 -27.015625 22.929688 -28.914062 21.421875 -30.34375 C 19.910156 -31.769531 17.914062 -32.484375 15.4375 -32.484375 C 12.957031 -32.484375 10.960938 -31.757812 9.453125 -30.3125 C 7.941406 -28.875 7.1875 -26.984375 7.1875 -24.640625 L 7.1875 -10.5625 C 7.1875 -8.21875 7.941406 -6.320312 9.453125 -4.875 C 10.960938 -3.4375 12.957031 -2.71875 15.4375 -2.71875 C 17.914062 -2.71875 19.910156 -3.425781 21.421875 -4.84375 C 22.929688 -6.269531 23.6875 -8.175781 23.6875 -10.5625 C 23.6875 -10.957031 23.90625 -11.140625 24.34375 -11.109375 L 26.59375 -11.015625 C 27.03125 -11.015625 27.25 -10.929688 27.25 -10.765625 L 27.25 -10.515625 C 27.25 -8.328125 26.753906 -6.40625 25.765625 -4.75 C 24.773438 -3.09375 23.390625 -1.8125 21.609375 -0.90625 C 19.835938 0 17.78125 0.453125 15.4375 0.453125 Z M 15.4375 0.453125 "/></g></g></g><g fill="#c32b45" fill-opacity="1"><g transform="translate(159.7871, 682.48129)"><g><path d="M 25.796875 -35.203125 C 26.234375 -35.203125 26.453125 -34.984375 26.453125 -34.546875 L 26.453125 -32.6875 C 26.453125 -32.25 26.234375 -32.03125 25.796875 -32.03125 L 16.140625 -32.03125 C 15.972656 -32.03125 15.890625 -31.945312 15.890625 -31.78125 L 15.890625 -0.65625 C 15.890625 -0.21875 15.671875 0 15.234375 0 L 12.96875 0 C 12.53125 0 12.3125 -0.21875 12.3125 -0.65625 L 12.3125 -31.78125 C 12.3125 -31.945312 12.226562 -32.03125 12.0625 -32.03125 L 2.8125 -32.03125 C 2.375 -32.03125 2.15625 -32.25 2.15625 -32.6875 L 2.15625 -34.546875 C 2.15625 -34.984375 2.375 -35.203125 2.8125 -35.203125 Z M 25.796875 -35.203125 "/></g></g></g><g fill="#c32b45" fill-opacity="1"><g transform="translate(188.399353, 682.48129)"><g><path d="M 15.59375 0.40625 C 13.207031 0.40625 11.109375 -0.078125 9.296875 -1.046875 C 7.492188 -2.023438 6.097656 -3.394531 5.109375 -5.15625 C 4.117188 -6.914062 3.625 -8.953125 3.625 -11.265625 L 3.625 -23.9375 C 3.625 -26.25 4.117188 -28.285156 5.109375 -30.046875 C 6.097656 -31.804688 7.492188 -33.171875 9.296875 -34.140625 C 11.109375 -35.109375 13.207031 -35.59375 15.59375 -35.59375 C 17.96875 -35.59375 20.066406 -35.109375 21.890625 -34.140625 C 23.722656 -33.171875 25.132812 -31.804688 26.125 -30.046875 C 27.113281 -28.285156 27.609375 -26.25 27.609375 -23.9375 L 27.609375 -11.265625 C 27.609375 -8.953125 27.113281 -6.914062 26.125 -5.15625 C 25.132812 -3.394531 23.722656 -2.023438 21.890625 -1.046875 C 20.066406 -0.078125 17.96875 0.40625 15.59375 0.40625 Z M 15.59375 -2.671875 C 18.132812 -2.671875 20.175781 -3.441406 21.71875 -4.984375 C 23.257812 -6.523438 24.03125 -8.566406 24.03125 -11.109375 L 24.03125 -23.984375 C 24.03125 -26.535156 23.257812 -28.585938 21.71875 -30.140625 C 20.175781 -31.703125 18.132812 -32.484375 15.59375 -32.484375 C 13.070312 -32.484375 11.039062 -31.703125 9.5 -30.140625 C 7.957031 -28.585938 7.1875 -26.535156 7.1875 -23.984375 L 7.1875 -11.109375 C 7.1875 -8.566406 7.957031 -6.523438 9.5 -4.984375 C 11.039062 -3.441406 13.070312 -2.671875 15.59375 -2.671875 Z M 15.59375 -2.671875 "/></g></g></g><g fill="#c32b45" fill-opacity="1"><g transform="translate(219.676707, 682.48129)"><g><path d="M 25.390625 0 C 25.023438 0 24.757812 -0.164062 24.59375 -0.5 L 17.25 -15.984375 C 17.175781 -16.117188 17.070312 -16.1875 16.9375 -16.1875 L 8.546875 -16.1875 C 8.378906 -16.1875 8.296875 -16.101562 8.296875 -15.9375 L 8.296875 -0.65625 C 8.296875 -0.21875 8.078125 0 7.640625 0 L 5.375 0 C 4.9375 0 4.71875 -0.21875 4.71875 -0.65625 L 4.71875 -34.59375 C 4.71875 -35.03125 4.9375 -35.25 5.375 -35.25 L 18.25 -35.25 C 21.132812 -35.25 23.460938 -34.359375 25.234375 -32.578125 C 27.015625 -30.804688 27.90625 -28.476562 27.90625 -25.59375 C 27.90625 -23.25 27.273438 -21.265625 26.015625 -19.640625 C 24.765625 -18.015625 23.046875 -16.945312 20.859375 -16.4375 C 20.691406 -16.40625 20.644531 -16.304688 20.71875 -16.140625 L 28.203125 -0.75 C 28.273438 -0.613281 28.3125 -0.515625 28.3125 -0.453125 C 28.3125 -0.148438 28.109375 0 27.703125 0 Z M 8.546875 -32.125 C 8.378906 -32.125 8.296875 -32.039062 8.296875 -31.875 L 8.296875 -19.3125 C 8.296875 -19.144531 8.378906 -19.0625 8.546875 -19.0625 L 17.84375 -19.0625 C 19.789062 -19.0625 21.367188 -19.65625 22.578125 -20.84375 C 23.785156 -22.03125 24.390625 -23.597656 24.390625 -25.546875 C 24.390625 -27.484375 23.785156 -29.0625 22.578125 -30.28125 C 21.367188 -31.507812 19.789062 -32.125 17.84375 -32.125 Z M 8.546875 -32.125 "/></g></g></g><g fill="#c32b45" fill-opacity="1"><g transform="translate(250.451218, 682.48129)"><g/></g></g><g fill="#c32b45" fill-opacity="1"><g transform="translate(260.508263, 682.48129)"><g><path d="M 5.375 0 C 4.9375 0 4.71875 -0.21875 4.71875 -0.65625 L 4.71875 -34.546875 C 4.71875 -34.984375 4.9375 -35.203125 5.375 -35.203125 L 17.09375 -35.203125 C 20.414062 -35.203125 23.054688 -34.328125 25.015625 -32.578125 C 26.972656 -30.835938 27.953125 -28.476562 27.953125 -25.5 L 27.953125 -9.703125 C 27.953125 -6.722656 26.972656 -4.359375 25.015625 -2.609375 C 23.054688 -0.867188 20.414062 0 17.09375 0 Z M 8.296875 -3.375 C 8.296875 -3.207031 8.378906 -3.125 8.546875 -3.125 L 17.25 -3.125 C 19.425781 -3.125 21.160156 -3.757812 22.453125 -5.03125 C 23.742188 -6.300781 24.390625 -8.007812 24.390625 -10.15625 L 24.390625 -24.984375 C 24.390625 -27.171875 23.75 -28.898438 22.46875 -30.171875 C 21.195312 -31.441406 19.457031 -32.078125 17.25 -32.078125 L 8.546875 -32.078125 C 8.378906 -32.078125 8.296875 -31.992188 8.296875 -31.828125 Z M 8.296875 -3.375 "/></g></g></g><g fill="#c32b45" fill-opacity="1"><g transform="translate(291.584486, 682.48129)"><g><path d="M 27.5 -32.734375 C 27.5 -32.296875 27.28125 -32.078125 26.84375 -32.078125 L 8.546875 -32.078125 C 8.378906 -32.078125 8.296875 -31.992188 8.296875 -31.828125 L 8.296875 -19.515625 C 8.296875 -19.335938 8.378906 -19.25 8.546875 -19.25 L 21.3125 -19.25 C 21.75 -19.25 21.96875 -19.035156 21.96875 -18.609375 L 21.96875 -16.796875 C 21.96875 -16.359375 21.75 -16.140625 21.3125 -16.140625 L 8.546875 -16.140625 C 8.378906 -16.140625 8.296875 -16.054688 8.296875 -15.890625 L 8.296875 -3.375 C 8.296875 -3.207031 8.378906 -3.125 8.546875 -3.125 L 26.84375 -3.125 C 27.28125 -3.125 27.5 -2.90625 27.5 -2.46875 L 27.5 -0.65625 C 27.5 -0.21875 27.28125 0 26.84375 0 L 5.375 0 C 4.9375 0 4.71875 -0.21875 4.71875 -0.65625 L 4.71875 -34.546875 C 4.71875 -34.984375 4.9375 -35.203125 5.375 -35.203125 L 26.84375 -35.203125 C 27.28125 -35.203125 27.5 -34.984375 27.5 -34.546875 Z M 27.5 -32.734375 "/></g></g></g><g fill="#c32b45" fill-opacity="1"><g transform="translate(322.007023, 682.48129)"><g/></g></g><g fill="#c32b45" fill-opacity="1"><g transform="translate(332.064045, 682.48129)"><g><path d="M 25.6875 0 C 25.320312 0 25.085938 -0.179688 24.984375 -0.546875 L 22.984375 -6.6875 C 22.910156 -6.820312 22.828125 -6.890625 22.734375 -6.890625 L 7.75 -6.890625 C 7.644531 -6.890625 7.554688 -6.820312 7.484375 -6.6875 L 5.53125 -0.546875 C 5.425781 -0.179688 5.191406 0 4.828125 0 L 2.40625 0 C 2.175781 0 2.007812 -0.0664062 1.90625 -0.203125 C 1.8125 -0.335938 1.796875 -0.519531 1.859375 -0.75 L 12.921875 -34.640625 C 13.023438 -35.015625 13.257812 -35.203125 13.625 -35.203125 L 16.84375 -35.203125 C 17.207031 -35.203125 17.441406 -35.015625 17.546875 -34.640625 L 28.65625 -0.75 C 28.6875 -0.6875 28.703125 -0.601562 28.703125 -0.5 C 28.703125 -0.363281 28.644531 -0.242188 28.53125 -0.140625 C 28.414062 -0.046875 28.273438 0 28.109375 0 Z M 8.59375 -10.109375 C 8.5625 -9.910156 8.628906 -9.8125 8.796875 -9.8125 L 21.71875 -9.8125 C 21.914062 -9.8125 21.984375 -9.910156 21.921875 -10.109375 L 15.390625 -30.671875 C 15.347656 -30.804688 15.296875 -30.875 15.234375 -30.875 C 15.171875 -30.875 15.117188 -30.804688 15.078125 -30.671875 Z M 8.59375 -10.109375 "/></g></g></g><g fill="#c32b45" fill-opacity="1"><g transform="translate(362.58713, 682.48129)"><g><path d="M 25.390625 0 C 25.023438 0 24.757812 -0.164062 24.59375 -0.5 L 17.25 -15.984375 C 17.175781 -16.117188 17.070312 -16.1875 16.9375 -16.1875 L 8.546875 -16.1875 C 8.378906 -16.1875 8.296875 -16.101562 8.296875 -15.9375 L 8.296875 -0.65625 C 8.296875 -0.21875 8.078125 0 7.640625 0 L 5.375 0 C 4.9375 0 4.71875 -0.21875 4.71875 -0.65625 L 4.71875 -34.59375 C 4.71875 -35.03125 4.9375 -35.25 5.375 -35.25 L 18.25 -35.25 C 21.132812 -35.25 23.460938 -34.359375 25.234375 -32.578125 C 27.015625 -30.804688 27.90625 -28.476562 27.90625 -25.59375 C 27.90625 -23.25 27.273438 -21.265625 26.015625 -19.640625 C 24.765625 -18.015625 23.046875 -16.945312 20.859375 -16.4375 C 20.691406 -16.40625 20.644531 -16.304688 20.71875 -16.140625 L 28.203125 -0.75 C 28.273438 -0.613281 28.3125 -0.515625 28.3125 -0.453125 C 28.3125 -0.148438 28.109375 0 27.703125 0 Z M 8.546875 -32.125 C 8.378906 -32.125 8.296875 -32.039062 8.296875 -31.875 L 8.296875 -19.3125 C 8.296875 -19.144531 8.378906 -19.0625 8.546875 -19.0625 L 17.84375 -19.0625 C 19.789062 -19.0625 21.367188 -19.65625 22.578125 -20.84375 C 23.785156 -22.03125 24.390625 -23.597656 24.390625 -25.546875 C 24.390625 -27.484375 23.785156 -29.0625 22.578125 -30.28125 C 21.367188 -31.507812 19.789062 -32.125 17.84375 -32.125 Z M 8.546875 -32.125 "/></g></g></g><g fill="#c32b45" fill-opacity="1"><g transform="translate(393.361619, 682.48129)"><g><path d="M 25.390625 0 C 25.023438 0 24.757812 -0.164062 24.59375 -0.5 L 17.25 -15.984375 C 17.175781 -16.117188 17.070312 -16.1875 16.9375 -16.1875 L 8.546875 -16.1875 C 8.378906 -16.1875 8.296875 -16.101562 8.296875 -15.9375 L 8.296875 -0.65625 C 8.296875 -0.21875 8.078125 0 7.640625 0 L 5.375 0 C 4.9375 0 4.71875 -0.21875 4.71875 -0.65625 L 4.71875 -34.59375 C 4.71875 -35.03125 4.9375 -35.25 5.375 -35.25 L 18.25 -35.25 C 21.132812 -35.25 23.460938 -34.359375 25.234375 -32.578125 C 27.015625 -30.804688 27.90625 -28.476562 27.90625 -25.59375 C 27.90625 -23.25 27.273438 -21.265625 26.015625 -19.640625 C 24.765625 -18.015625 23.046875 -16.945312 20.859375 -16.4375 C 20.691406 -16.40625 20.644531 -16.304688 20.71875 -16.140625 L 28.203125 -0.75 C 28.273438 -0.613281 28.3125 -0.515625 28.3125 -0.453125 C 28.3125 -0.148438 28.109375 0 27.703125 0 Z M 8.546875 -32.125 C 8.378906 -32.125 8.296875 -32.039062 8.296875 -31.875 L 8.296875 -19.3125 C 8.296875 -19.144531 8.378906 -19.0625 8.546875 -19.0625 L 17.84375 -19.0625 C 19.789062 -19.0625 21.367188 -19.65625 22.578125 -20.84375 C 23.785156 -22.03125 24.390625 -23.597656 24.390625 -25.546875 C 24.390625 -27.484375 23.785156 -29.0625 22.578125 -30.28125 C 21.367188 -31.507812 19.789062 -32.125 17.84375 -32.125 Z M 8.546875 -32.125 "/></g></g></g><g fill="#c32b45" fill-opacity="1"><g transform="translate(424.136154, 682.48129)"><g><path d="M 5.375 0 C 4.9375 0 4.71875 -0.21875 4.71875 -0.65625 L 4.71875 -34.546875 C 4.71875 -34.984375 4.9375 -35.203125 5.375 -35.203125 L 7.640625 -35.203125 C 8.078125 -35.203125 8.296875 -34.984375 8.296875 -34.546875 L 8.296875 -0.65625 C 8.296875 -0.21875 8.078125 0 7.640625 0 Z M 5.375 0 "/></g></g></g><g fill="#c32b45" fill-opacity="1"><g transform="translate(437.159987, 682.48129)"><g><path d="M 25.796875 -35.203125 C 26.234375 -35.203125 26.453125 -34.984375 26.453125 -34.546875 L 26.453125 -32.6875 C 26.453125 -32.25 26.234375 -32.03125 25.796875 -32.03125 L 16.140625 -32.03125 C 15.972656 -32.03125 15.890625 -31.945312 15.890625 -31.78125 L 15.890625 -0.65625 C 15.890625 -0.21875 15.671875 0 15.234375 0 L 12.96875 0 C 12.53125 0 12.3125 -0.21875 12.3125 -0.65625 L 12.3125 -31.78125 C 12.3125 -31.945312 12.226562 -32.03125 12.0625 -32.03125 L 2.8125 -32.03125 C 2.375 -32.03125 2.15625 -32.25 2.15625 -32.6875 L 2.15625 -34.546875 C 2.15625 -34.984375 2.375 -35.203125 2.8125 -35.203125 Z M 25.796875 -35.203125 "/></g></g></g><g fill="#c32b45" fill-opacity="1"><g transform="translate(465.772229, 682.48129)"><g><path d="M 5.375 0 C 4.9375 0 4.71875 -0.21875 4.71875 -0.65625 L 4.71875 -34.546875 C 4.71875 -34.984375 4.9375 -35.203125 5.375 -35.203125 L 7.75 -35.203125 C 8.050781 -35.203125 8.300781 -35.050781 8.5 -34.75 L 17.703125 -20.21875 C 17.796875 -20.007812 17.894531 -20.007812 18 -20.21875 L 27.25 -34.75 C 27.445312 -35.050781 27.695312 -35.203125 28 -35.203125 L 30.375 -35.203125 C 30.8125 -35.203125 31.03125 -34.984375 31.03125 -34.546875 L 31.03125 -0.65625 C 31.03125 -0.21875 30.8125 0 30.375 0 L 28.109375 0 C 27.671875 0 27.453125 -0.21875 27.453125 -0.65625 L 27.453125 -28.40625 C 27.453125 -28.539062 27.414062 -28.609375 27.34375 -28.609375 C 27.28125 -28.609375 27.21875 -28.554688 27.15625 -28.453125 L 19.203125 -15.890625 C 19.003906 -15.585938 18.753906 -15.4375 18.453125 -15.4375 L 17.296875 -15.4375 C 16.992188 -15.4375 16.742188 -15.585938 16.546875 -15.890625 L 8.59375 -28.453125 C 8.53125 -28.554688 8.460938 -28.609375 8.390625 -28.609375 C 8.328125 -28.609375 8.296875 -28.539062 8.296875 -28.40625 L 8.296875 -0.65625 C 8.296875 -0.21875 8.078125 0 7.640625 0 Z M 5.375 0 "/></g></g></g><g fill="#c32b45" fill-opacity="1"><g transform="translate(501.524989, 682.48129)"><g><path d="M 5.375 0 C 4.9375 0 4.71875 -0.21875 4.71875 -0.65625 L 4.71875 -34.546875 C 4.71875 -34.984375 4.9375 -35.203125 5.375 -35.203125 L 7.640625 -35.203125 C 8.078125 -35.203125 8.296875 -34.984375 8.296875 -34.546875 L 8.296875 -0.65625 C 8.296875 -0.21875 8.078125 0 7.640625 0 Z M 5.375 0 "/></g></g></g><g fill="#c32b45" fill-opacity="1"><g transform="translate(514.548868, 682.48129)"><g><path d="M 25.6875 0 C 25.320312 0 25.085938 -0.179688 24.984375 -0.546875 L 22.984375 -6.6875 C 22.910156 -6.820312 22.828125 -6.890625 22.734375 -6.890625 L 7.75 -6.890625 C 7.644531 -6.890625 7.554688 -6.820312 7.484375 -6.6875 L 5.53125 -0.546875 C 5.425781 -0.179688 5.191406 0 4.828125 0 L 2.40625 0 C 2.175781 0 2.007812 -0.0664062 1.90625 -0.203125 C 1.8125 -0.335938 1.796875 -0.519531 1.859375 -0.75 L 12.921875 -34.640625 C 13.023438 -35.015625 13.257812 -35.203125 13.625 -35.203125 L 16.84375 -35.203125 C 17.207031 -35.203125 17.441406 -35.015625 17.546875 -34.640625 L 28.65625 -0.75 C 28.6875 -0.6875 28.703125 -0.601562 28.703125 -0.5 C 28.703125 -0.363281 28.644531 -0.242188 28.53125 -0.140625 C 28.414062 -0.046875 28.273438 0 28.109375 0 Z M 8.59375 -10.109375 C 8.5625 -9.910156 8.628906 -9.8125 8.796875 -9.8125 L 21.71875 -9.8125 C 21.914062 -9.8125 21.984375 -9.910156 21.921875 -10.109375 L 15.390625 -30.671875 C 15.347656 -30.804688 15.296875 -30.875 15.234375 -30.875 C 15.171875 -30.875 15.117188 -30.804688 15.078125 -30.671875 Z M 8.59375 -10.109375 "/></g></g></g><g fill="#c32b45" fill-opacity="1"><g transform="translate(545.071954, 682.48129)"><g><path d="M 14.984375 0.40625 C 12.535156 0.40625 10.394531 0.0195312 8.5625 -0.75 C 6.738281 -1.519531 5.332031 -2.617188 4.34375 -4.046875 C 3.351562 -5.472656 2.859375 -7.125 2.859375 -9 L 2.859375 -10.40625 C 2.859375 -10.84375 3.078125 -11.0625 3.515625 -11.0625 L 5.6875 -11.0625 C 6.113281 -11.0625 6.328125 -10.84375 6.328125 -10.40625 L 6.328125 -9.203125 C 6.328125 -7.285156 7.128906 -5.722656 8.734375 -4.515625 C 10.347656 -3.316406 12.515625 -2.71875 15.234375 -2.71875 C 17.816406 -2.71875 19.773438 -3.257812 21.109375 -4.34375 C 22.453125 -5.4375 23.125 -6.890625 23.125 -8.703125 C 23.125 -9.867188 22.8125 -10.867188 22.1875 -11.703125 C 21.570312 -12.546875 20.628906 -13.335938 19.359375 -14.078125 C 18.085938 -14.816406 16.257812 -15.671875 13.875 -16.640625 C 11.363281 -17.648438 9.410156 -18.53125 8.015625 -19.28125 C 6.628906 -20.039062 5.507812 -21.015625 4.65625 -22.203125 C 3.800781 -23.390625 3.375 -24.890625 3.375 -26.703125 C 3.375 -29.515625 4.351562 -31.695312 6.3125 -33.25 C 8.269531 -34.8125 10.976562 -35.59375 14.4375 -35.59375 C 18.125 -35.59375 21.035156 -34.722656 23.171875 -32.984375 C 25.316406 -31.242188 26.390625 -28.929688 26.390625 -26.046875 L 26.390625 -25.09375 C 26.390625 -24.65625 26.175781 -24.4375 25.75 -24.4375 L 23.53125 -24.4375 C 23.09375 -24.4375 22.875 -24.65625 22.875 -25.09375 L 22.875 -25.84375 C 22.875 -27.789062 22.117188 -29.382812 20.609375 -30.625 C 19.109375 -31.863281 16.984375 -32.484375 14.234375 -32.484375 C 11.847656 -32.484375 10.023438 -31.992188 8.765625 -31.015625 C 7.515625 -30.046875 6.890625 -28.640625 6.890625 -26.796875 C 6.890625 -25.585938 7.195312 -24.585938 7.8125 -23.796875 C 8.4375 -23.015625 9.328125 -22.328125 10.484375 -21.734375 C 11.640625 -21.148438 13.40625 -20.390625 15.78125 -19.453125 C 18.226562 -18.453125 20.207031 -17.515625 21.71875 -16.640625 C 23.226562 -15.765625 24.4375 -14.695312 25.34375 -13.4375 C 26.25 -12.1875 26.703125 -10.65625 26.703125 -8.84375 C 26.703125 -6.0625 25.671875 -3.820312 23.609375 -2.125 C 21.546875 -0.4375 18.671875 0.40625 14.984375 0.40625 Z M 14.984375 0.40625 "/></g></g></g><g fill="#c32b45" fill-opacity="1"><g transform="translate(574.53907, 682.48129)"><g/></g></g><g fill="#c32b45" fill-opacity="1"><g transform="translate(584.596091, 682.48129)"><g><path d="M 15.4375 0.453125 C 13.09375 0.453125 11.03125 -0.00390625 9.25 -0.921875 C 7.476562 -1.847656 6.097656 -3.15625 5.109375 -4.84375 C 4.117188 -6.539062 3.625 -8.492188 3.625 -10.703125 L 3.625 -24.53125 C 3.625 -26.71875 4.117188 -28.644531 5.109375 -30.3125 C 6.097656 -31.988281 7.476562 -33.285156 9.25 -34.203125 C 11.03125 -35.128906 13.09375 -35.59375 15.4375 -35.59375 C 17.78125 -35.59375 19.835938 -35.140625 21.609375 -34.234375 C 23.390625 -33.335938 24.773438 -32.066406 25.765625 -30.421875 C 26.753906 -28.773438 27.25 -26.878906 27.25 -24.734375 C 27.25 -24.429688 27.03125 -24.25 26.59375 -24.1875 L 24.34375 -24.03125 L 24.1875 -24.03125 C 24.050781 -24.03125 23.929688 -24.0625 23.828125 -24.125 C 23.734375 -24.195312 23.6875 -24.269531 23.6875 -24.34375 L 23.6875 -24.640625 C 23.6875 -27.015625 22.929688 -28.914062 21.421875 -30.34375 C 19.910156 -31.769531 17.914062 -32.484375 15.4375 -32.484375 C 12.957031 -32.484375 10.960938 -31.757812 9.453125 -30.3125 C 7.941406 -28.875 7.1875 -26.984375 7.1875 -24.640625 L 7.1875 -10.5625 C 7.1875 -8.21875 7.941406 -6.320312 9.453125 -4.875 C 10.960938 -3.4375 12.957031 -2.71875 15.4375 -2.71875 C 17.914062 -2.71875 19.910156 -3.425781 21.421875 -4.84375 C 22.929688 -6.269531 23.6875 -8.175781 23.6875 -10.5625 C 23.6875 -10.957031 23.90625 -11.140625 24.34375 -11.109375 L 26.59375 -11.015625 C 27.03125 -11.015625 27.25 -10.929688 27.25 -10.765625 L 27.25 -10.515625 C 27.25 -8.328125 26.753906 -6.40625 25.765625 -4.75 C 24.773438 -3.09375 23.390625 -1.8125 21.609375 -0.90625 C 19.835938 0 17.78125 0.453125 15.4375 0.453125 Z M 15.4375 0.453125 "/></g></g></g><g fill="#c32b45" fill-opacity="1"><g transform="translate(615.119176, 682.48129)"><g><path d="M 25.6875 0 C 25.320312 0 25.085938 -0.179688 24.984375 -0.546875 L 22.984375 -6.6875 C 22.910156 -6.820312 22.828125 -6.890625 22.734375 -6.890625 L 7.75 -6.890625 C 7.644531 -6.890625 7.554688 -6.820312 7.484375 -6.6875 L 5.53125 -0.546875 C 5.425781 -0.179688 5.191406 0 4.828125 0 L 2.40625 0 C 2.175781 0 2.007812 -0.0664062 1.90625 -0.203125 C 1.8125 -0.335938 1.796875 -0.519531 1.859375 -0.75 L 12.921875 -34.640625 C 13.023438 -35.015625 13.257812 -35.203125 13.625 -35.203125 L 16.84375 -35.203125 C 17.207031 -35.203125 17.441406 -35.015625 17.546875 -34.640625 L 28.65625 -0.75 C 28.6875 -0.6875 28.703125 -0.601562 28.703125 -0.5 C 28.703125 -0.363281 28.644531 -0.242188 28.53125 -0.140625 C 28.414062 -0.046875 28.273438 0 28.109375 0 Z M 8.59375 -10.109375 C 8.5625 -9.910156 8.628906 -9.8125 8.796875 -9.8125 L 21.71875 -9.8125 C 21.914062 -9.8125 21.984375 -9.910156 21.921875 -10.109375 L 15.390625 -30.671875 C 15.347656 -30.804688 15.296875 -30.875 15.234375 -30.875 C 15.171875 -30.875 15.117188 -30.804688 15.078125 -30.671875 Z M 8.59375 -10.109375 "/></g></g></g><g fill="#c32b45" fill-opacity="1"><g transform="translate(645.642262, 682.48129)"><g><path d="M 25.390625 0 C 25.023438 0 24.757812 -0.164062 24.59375 -0.5 L 17.25 -15.984375 C 17.175781 -16.117188 17.070312 -16.1875 16.9375 -16.1875 L 8.546875 -16.1875 C 8.378906 -16.1875 8.296875 -16.101562 8.296875 -15.9375 L 8.296875 -0.65625 C 8.296875 -0.21875 8.078125 0 7.640625 0 L 5.375 0 C 4.9375 0 4.71875 -0.21875 4.71875 -0.65625 L 4.71875 -34.59375 C 4.71875 -35.03125 4.9375 -35.25 5.375 -35.25 L 18.25 -35.25 C 21.132812 -35.25 23.460938 -34.359375 25.234375 -32.578125 C 27.015625 -30.804688 27.90625 -28.476562 27.90625 -25.59375 C 27.90625 -23.25 27.273438 -21.265625 26.015625 -19.640625 C 24.765625 -18.015625 23.046875 -16.945312 20.859375 -16.4375 C 20.691406 -16.40625 20.644531 -16.304688 20.71875 -16.140625 L 28.203125 -0.75 C 28.273438 -0.613281 28.3125 -0.515625 28.3125 -0.453125 C 28.3125 -0.148438 28.109375 0 27.703125 0 Z M 8.546875 -32.125 C 8.378906 -32.125 8.296875 -32.039062 8.296875 -31.875 L 8.296875 -19.3125 C 8.296875 -19.144531 8.378906 -19.0625 8.546875 -19.0625 L 17.84375 -19.0625 C 19.789062 -19.0625 21.367188 -19.65625 22.578125 -20.84375 C 23.785156 -22.03125 24.390625 -23.597656 24.390625 -25.546875 C 24.390625 -27.484375 23.785156 -29.0625 22.578125 -30.28125 C 21.367188 -31.507812 19.789062 -32.125 17.84375 -32.125 Z M 8.546875 -32.125 "/></g></g></g><g fill="#c32b45" fill-opacity="1"><g transform="translate(676.416751, 682.48129)"><g><path d="M 5.375 0 C 4.9375 0 4.71875 -0.21875 4.71875 -0.65625 L 4.71875 -34.546875 C 4.71875 -34.984375 4.9375 -35.203125 5.375 -35.203125 L 17.09375 -35.203125 C 20.414062 -35.203125 23.054688 -34.328125 25.015625 -32.578125 C 26.972656 -30.835938 27.953125 -28.476562 27.953125 -25.5 L 27.953125 -9.703125 C 27.953125 -6.722656 26.972656 -4.359375 25.015625 -2.609375 C 23.054688 -0.867188 20.414062 0 17.09375 0 Z M 8.296875 -3.375 C 8.296875 -3.207031 8.378906 -3.125 8.546875 -3.125 L 17.25 -3.125 C 19.425781 -3.125 21.160156 -3.757812 22.453125 -5.03125 C 23.742188 -6.300781 24.390625 -8.007812 24.390625 -10.15625 L 24.390625 -24.984375 C 24.390625 -27.171875 23.75 -28.898438 22.46875 -30.171875 C 21.195312 -31.441406 19.457031 -32.078125 17.25 -32.078125 L 8.546875 -32.078125 C 8.378906 -32.078125 8.296875 -31.992188 8.296875 -31.828125 Z M 8.296875 -3.375 "/></g></g></g><g fill="#c32b45" fill-opacity="1"><g transform="translate(707.492952, 682.48129)"><g><path d="M 5.375 0 C 4.9375 0 4.71875 -0.21875 4.71875 -0.65625 L 4.71875 -34.546875 C 4.71875 -34.984375 4.9375 -35.203125 5.375 -35.203125 L 7.640625 -35.203125 C 8.078125 -35.203125 8.296875 -34.984375 8.296875 -34.546875 L 8.296875 -0.65625 C 8.296875 -0.21875 8.078125 0 7.640625 0 Z M 5.375 0 "/></g></g></g><g fill="#c32b45" fill-opacity="1"><g transform="translate(720.516785, 682.48129)"><g><path d="M 25.6875 0 C 25.320312 0 25.085938 -0.179688 24.984375 -0.546875 L 22.984375 -6.6875 C 22.910156 -6.820312 22.828125 -6.890625 22.734375 -6.890625 L 7.75 -6.890625 C 7.644531 -6.890625 7.554688 -6.820312 7.484375 -6.6875 L 5.53125 -0.546875 C 5.425781 -0.179688 5.191406 0 4.828125 0 L 2.40625 0 C 2.175781 0 2.007812 -0.0664062 1.90625 -0.203125 C 1.8125 -0.335938 1.796875 -0.519531 1.859375 -0.75 L 12.921875 -34.640625 C 13.023438 -35.015625 13.257812 -35.203125 13.625 -35.203125 L 16.84375 -35.203125 C 17.207031 -35.203125 17.441406 -35.015625 17.546875 -34.640625 L 28.65625 -0.75 C 28.6875 -0.6875 28.703125 -0.601562 28.703125 -0.5 C 28.703125 -0.363281 28.644531 -0.242188 28.53125 -0.140625 C 28.414062 -0.046875 28.273438 0 28.109375 0 Z M 8.59375 -10.109375 C 8.5625 -9.910156 8.628906 -9.8125 8.796875 -9.8125 L 21.71875 -9.8125 C 21.914062 -9.8125 21.984375 -9.910156 21.921875 -10.109375 L 15.390625 -30.671875 C 15.347656 -30.804688 15.296875 -30.875 15.234375 -30.875 C 15.171875 -30.875 15.117188 -30.804688 15.078125 -30.671875 Z M 8.59375 -10.109375 "/></g></g></g><g fill="#c32b45" fill-opacity="1"><g transform="translate(751.03987, 682.48129)"><g><path d="M 15.4375 0.453125 C 13.09375 0.453125 11.03125 -0.00390625 9.25 -0.921875 C 7.476562 -1.847656 6.097656 -3.15625 5.109375 -4.84375 C 4.117188 -6.539062 3.625 -8.492188 3.625 -10.703125 L 3.625 -24.53125 C 3.625 -26.71875 4.117188 -28.644531 5.109375 -30.3125 C 6.097656 -31.988281 7.476562 -33.285156 9.25 -34.203125 C 11.03125 -35.128906 13.09375 -35.59375 15.4375 -35.59375 C 17.78125 -35.59375 19.835938 -35.140625 21.609375 -34.234375 C 23.390625 -33.335938 24.773438 -32.066406 25.765625 -30.421875 C 26.753906 -28.773438 27.25 -26.878906 27.25 -24.734375 C 27.25 -24.429688 27.03125 -24.25 26.59375 -24.1875 L 24.34375 -24.03125 L 24.1875 -24.03125 C 24.050781 -24.03125 23.929688 -24.0625 23.828125 -24.125 C 23.734375 -24.195312 23.6875 -24.269531 23.6875 -24.34375 L 23.6875 -24.640625 C 23.6875 -27.015625 22.929688 -28.914062 21.421875 -30.34375 C 19.910156 -31.769531 17.914062 -32.484375 15.4375 -32.484375 C 12.957031 -32.484375 10.960938 -31.757812 9.453125 -30.3125 C 7.941406 -28.875 7.1875 -26.984375 7.1875 -24.640625 L 7.1875 -10.5625 C 7.1875 -8.21875 7.941406 -6.320312 9.453125 -4.875 C 10.960938 -3.4375 12.957031 -2.71875 15.4375 -2.71875 C 17.914062 -2.71875 19.910156 -3.425781 21.421875 -4.84375 C 22.929688 -6.269531 23.6875 -8.175781 23.6875 -10.5625 C 23.6875 -10.957031 23.90625 -11.140625 24.34375 -11.109375 L 26.59375 -11.015625 C 27.03125 -11.015625 27.25 -10.929688 27.25 -10.765625 L 27.25 -10.515625 C 27.25 -8.328125 26.753906 -6.40625 25.765625 -4.75 C 24.773438 -3.09375 23.390625 -1.8125 21.609375 -0.90625 C 19.835938 0 17.78125 0.453125 15.4375 0.453125 Z M 15.4375 0.453125 "/></g></g></g><g fill="#c32b45" fill-opacity="1"><g transform="translate(781.562956, 682.48129)"><g><path d="M 25.6875 0 C 25.320312 0 25.085938 -0.179688 24.984375 -0.546875 L 22.984375 -6.6875 C 22.910156 -6.820312 22.828125 -6.890625 22.734375 -6.890625 L 7.75 -6.890625 C 7.644531 -6.890625 7.554688 -6.820312 7.484375 -6.6875 L 5.53125 -0.546875 C 5.425781 -0.179688 5.191406 0 4.828125 0 L 2.40625 0 C 2.175781 0 2.007812 -0.0664062 1.90625 -0.203125 C 1.8125 -0.335938 1.796875 -0.519531 1.859375 -0.75 L 12.921875 -34.640625 C 13.023438 -35.015625 13.257812 -35.203125 13.625 -35.203125 L 16.84375 -35.203125 C 17.207031 -35.203125 17.441406 -35.015625 17.546875 -34.640625 L 28.65625 -0.75 C 28.6875 -0.6875 28.703125 -0.601562 28.703125 -0.5 C 28.703125 -0.363281 28.644531 -0.242188 28.53125 -0.140625 C 28.414062 -0.046875 28.273438 0 28.109375 0 Z M 8.59375 -10.109375 C 8.5625 -9.910156 8.628906 -9.8125 8.796875 -9.8125 L 21.71875 -9.8125 C 21.914062 -9.8125 21.984375 -9.910156 21.921875 -10.109375 L 15.390625 -30.671875 C 15.347656 -30.804688 15.296875 -30.875 15.234375 -30.875 C 15.171875 -30.875 15.117188 -30.804688 15.078125 -30.671875 Z M 8.59375 -10.109375 "/></g></g></g><g fill="#c32b45" fill-opacity="1"><g transform="translate(812.086087, 682.48129)"><g><path d="M 14.984375 0.40625 C 12.535156 0.40625 10.394531 0.0195312 8.5625 -0.75 C 6.738281 -1.519531 5.332031 -2.617188 4.34375 -4.046875 C 3.351562 -5.472656 2.859375 -7.125 2.859375 -9 L 2.859375 -10.40625 C 2.859375 -10.84375 3.078125 -11.0625 3.515625 -11.0625 L 5.6875 -11.0625 C 6.113281 -11.0625 6.328125 -10.84375 6.328125 -10.40625 L 6.328125 -9.203125 C 6.328125 -7.285156 7.128906 -5.722656 8.734375 -4.515625 C 10.347656 -3.316406 12.515625 -2.71875 15.234375 -2.71875 C 17.816406 -2.71875 19.773438 -3.257812 21.109375 -4.34375 C 22.453125 -5.4375 23.125 -6.890625 23.125 -8.703125 C 23.125 -9.867188 22.8125 -10.867188 22.1875 -11.703125 C 21.570312 -12.546875 20.628906 -13.335938 19.359375 -14.078125 C 18.085938 -14.816406 16.257812 -15.671875 13.875 -16.640625 C 11.363281 -17.648438 9.410156 -18.53125 8.015625 -19.28125 C 6.628906 -20.039062 5.507812 -21.015625 4.65625 -22.203125 C 3.800781 -23.390625 3.375 -24.890625 3.375 -26.703125 C 3.375 -29.515625 4.351562 -31.695312 6.3125 -33.25 C 8.269531 -34.8125 10.976562 -35.59375 14.4375 -35.59375 C 18.125 -35.59375 21.035156 -34.722656 23.171875 -32.984375 C 25.316406 -31.242188 26.390625 -28.929688 26.390625 -26.046875 L 26.390625 -25.09375 C 26.390625 -24.65625 26.175781 -24.4375 25.75 -24.4375 L 23.53125 -24.4375 C 23.09375 -24.4375 22.875 -24.65625 22.875 -25.09375 L 22.875 -25.84375 C 22.875 -27.789062 22.117188 -29.382812 20.609375 -30.625 C 19.109375 -31.863281 16.984375 -32.484375 14.234375 -32.484375 C 11.847656 -32.484375 10.023438 -31.992188 8.765625 -31.015625 C 7.515625 -30.046875 6.890625 -28.640625 6.890625 -26.796875 C 6.890625 -25.585938 7.195312 -24.585938 7.8125 -23.796875 C 8.4375 -23.015625 9.328125 -22.328125 10.484375 -21.734375 C 11.640625 -21.148438 13.40625 -20.390625 15.78125 -19.453125 C 18.226562 -18.453125 20.207031 -17.515625 21.71875 -16.640625 C 23.226562 -15.765625 24.4375 -14.695312 25.34375 -13.4375 C 26.25 -12.1875 26.703125 -10.65625 26.703125 -8.84375 C 26.703125 -6.0625 25.671875 -3.820312 23.609375 -2.125 C 21.546875 -0.4375 18.671875 0.40625 14.984375 0.40625 Z M 14.984375 0.40625 "/></g></g></g><g fill="#c32b45" fill-opacity="1"><g transform="translate(841.553157, 682.48129)"><g/></g></g><g fill="#c32b45" fill-opacity="1"><g transform="translate(851.610224, 682.48129)"><g><path d="M 15.4375 0.453125 C 13.09375 0.453125 11.03125 -0.00390625 9.25 -0.921875 C 7.476562 -1.847656 6.097656 -3.15625 5.109375 -4.84375 C 4.117188 -6.539062 3.625 -8.492188 3.625 -10.703125 L 3.625 -24.53125 C 3.625 -26.71875 4.117188 -28.644531 5.109375 -30.3125 C 6.097656 -31.988281 7.476562 -33.285156 9.25 -34.203125 C 11.03125 -35.128906 13.09375 -35.59375 15.4375 -35.59375 C 17.78125 -35.59375 19.835938 -35.140625 21.609375 -34.234375 C 23.390625 -33.335938 24.773438 -32.066406 25.765625 -30.421875 C 26.753906 -28.773438 27.25 -26.878906 27.25 -24.734375 C 27.25 -24.429688 27.03125 -24.25 26.59375 -24.1875 L 24.34375 -24.03125 L 24.1875 -24.03125 C 24.050781 -24.03125 23.929688 -24.0625 23.828125 -24.125 C 23.734375 -24.195312 23.6875 -24.269531 23.6875 -24.34375 L 23.6875 -24.640625 C 23.6875 -27.015625 22.929688 -28.914062 21.421875 -30.34375 C 19.910156 -31.769531 17.914062 -32.484375 15.4375 -32.484375 C 12.957031 -32.484375 10.960938 -31.757812 9.453125 -30.3125 C 7.941406 -28.875 7.1875 -26.984375 7.1875 -24.640625 L 7.1875 -10.5625 C 7.1875 -8.21875 7.941406 -6.320312 9.453125 -4.875 C 10.960938 -3.4375 12.957031 -2.71875 15.4375 -2.71875 C 17.914062 -2.71875 19.910156 -3.425781 21.421875 -4.84375 C 22.929688 -6.269531 23.6875 -8.175781 23.6875 -10.5625 C 23.6875 -10.957031 23.90625 -11.140625 24.34375 -11.109375 L 26.59375 -11.015625 C 27.03125 -11.015625 27.25 -10.929688 27.25 -10.765625 L 27.25 -10.515625 C 27.25 -8.328125 26.753906 -6.40625 25.765625 -4.75 C 24.773438 -3.09375 23.390625 -1.8125 21.609375 -0.90625 C 19.835938 0 17.78125 0.453125 15.4375 0.453125 Z M 15.4375 0.453125 "/></g></g></g><g fill="#c32b45" fill-opacity="1"><g transform="translate(882.133355, 682.48129)"><g><path d="M 15.59375 0.40625 C 13.207031 0.40625 11.109375 -0.078125 9.296875 -1.046875 C 7.492188 -2.023438 6.097656 -3.394531 5.109375 -5.15625 C 4.117188 -6.914062 3.625 -8.953125 3.625 -11.265625 L 3.625 -23.9375 C 3.625 -26.25 4.117188 -28.285156 5.109375 -30.046875 C 6.097656 -31.804688 7.492188 -33.171875 9.296875 -34.140625 C 11.109375 -35.109375 13.207031 -35.59375 15.59375 -35.59375 C 17.96875 -35.59375 20.066406 -35.109375 21.890625 -34.140625 C 23.722656 -33.171875 25.132812 -31.804688 26.125 -30.046875 C 27.113281 -28.285156 27.609375 -26.25 27.609375 -23.9375 L 27.609375 -11.265625 C 27.609375 -8.953125 27.113281 -6.914062 26.125 -5.15625 C 25.132812 -3.394531 23.722656 -2.023438 21.890625 -1.046875 C 20.066406 -0.078125 17.96875 0.40625 15.59375 0.40625 Z M 15.59375 -2.671875 C 18.132812 -2.671875 20.175781 -3.441406 21.71875 -4.984375 C 23.257812 -6.523438 24.03125 -8.566406 24.03125 -11.109375 L 24.03125 -23.984375 C 24.03125 -26.535156 23.257812 -28.585938 21.71875 -30.140625 C 20.175781 -31.703125 18.132812 -32.484375 15.59375 -32.484375 C 13.070312 -32.484375 11.039062 -31.703125 9.5 -30.140625 C 7.957031 -28.585938 7.1875 -26.535156 7.1875 -23.984375 L 7.1875 -11.109375 C 7.1875 -8.566406 7.957031 -6.523438 9.5 -4.984375 C 11.039062 -3.441406 13.070312 -2.671875 15.59375 -2.671875 Z M 15.59375 -2.671875 "/></g></g></g><g fill="#c32b45" fill-opacity="1"><g transform="translate(913.410697, 682.48129)"><g><path d="M 5.375 0 C 4.9375 0 4.71875 -0.21875 4.71875 -0.65625 L 4.71875 -34.546875 C 4.71875 -34.984375 4.9375 -35.203125 5.375 -35.203125 L 7.640625 -35.203125 C 7.941406 -35.203125 8.191406 -35.050781 8.390625 -34.75 L 25.296875 -7.390625 C 25.359375 -7.285156 25.421875 -7.242188 25.484375 -7.265625 C 25.554688 -7.285156 25.59375 -7.359375 25.59375 -7.484375 L 25.59375 -34.546875 C 25.59375 -34.984375 25.8125 -35.203125 26.25 -35.203125 L 28.515625 -35.203125 C 28.941406 -35.203125 29.15625 -34.984375 29.15625 -34.546875 L 29.15625 -0.65625 C 29.15625 -0.21875 28.941406 0 28.515625 0 L 26.25 0 C 25.945312 0 25.695312 -0.148438 25.5 -0.453125 L 8.546875 -27.90625 C 8.484375 -28.007812 8.414062 -28.050781 8.34375 -28.03125 C 8.28125 -28.007812 8.25 -27.9375 8.25 -27.8125 L 8.296875 -0.65625 C 8.296875 -0.21875 8.078125 0 7.640625 0 Z M 5.375 0 "/></g></g></g><g fill="#c32b45" fill-opacity="1"><g transform="translate(947.252615, 682.48129)"><g/></g></g><g fill="#c32b45" fill-opacity="1"><g transform="translate(957.309682, 682.48129)"><g><path d="M 25.390625 0 C 25.023438 0 24.757812 -0.164062 24.59375 -0.5 L 17.25 -15.984375 C 17.175781 -16.117188 17.070312 -16.1875 16.9375 -16.1875 L 8.546875 -16.1875 C 8.378906 -16.1875 8.296875 -16.101562 8.296875 -15.9375 L 8.296875 -0.65625 C 8.296875 -0.21875 8.078125 0 7.640625 0 L 5.375 0 C 4.9375 0 4.71875 -0.21875 4.71875 -0.65625 L 4.71875 -34.59375 C 4.71875 -35.03125 4.9375 -35.25 5.375 -35.25 L 18.25 -35.25 C 21.132812 -35.25 23.460938 -34.359375 25.234375 -32.578125 C 27.015625 -30.804688 27.90625 -28.476562 27.90625 -25.59375 C 27.90625 -23.25 27.273438 -21.265625 26.015625 -19.640625 C 24.765625 -18.015625 23.046875 -16.945312 20.859375 -16.4375 C 20.691406 -16.40625 20.644531 -16.304688 20.71875 -16.140625 L 28.203125 -0.75 C 28.273438 -0.613281 28.3125 -0.515625 28.3125 -0.453125 C 28.3125 -0.148438 28.109375 0 27.703125 0 Z M 8.546875 -32.125 C 8.378906 -32.125 8.296875 -32.039062 8.296875 -31.875 L 8.296875 -19.3125 C 8.296875 -19.144531 8.378906 -19.0625 8.546875 -19.0625 L 17.84375 -19.0625 C 19.789062 -19.0625 21.367188 -19.65625 22.578125 -20.84375 C 23.785156 -22.03125 24.390625 -23.597656 24.390625 -25.546875 C 24.390625 -27.484375 23.785156 -29.0625 22.578125 -30.28125 C 21.367188 -31.507812 19.789062 -32.125 17.84375 -32.125 Z M 8.546875 -32.125 "/></g></g></g><g fill="#c32b45" fill-opacity="1"><g transform="translate(988.084217, 682.48129)"><g><path d="M 27.5 -32.734375 C 27.5 -32.296875 27.28125 -32.078125 26.84375 -32.078125 L 8.546875 -32.078125 C 8.378906 -32.078125 8.296875 -31.992188 8.296875 -31.828125 L 8.296875 -19.515625 C 8.296875 -19.335938 8.378906 -19.25 8.546875 -19.25 L 21.3125 -19.25 C 21.75 -19.25 21.96875 -19.035156 21.96875 -18.609375 L 21.96875 -16.796875 C 21.96875 -16.359375 21.75 -16.140625 21.3125 -16.140625 L 8.546875 -16.140625 C 8.378906 -16.140625 8.296875 -16.054688 8.296875 -15.890625 L 8.296875 -3.375 C 8.296875 -3.207031 8.378906 -3.125 8.546875 -3.125 L 26.84375 -3.125 C 27.28125 -3.125 27.5 -2.90625 27.5 -2.46875 L 27.5 -0.65625 C 27.5 -0.21875 27.28125 0 26.84375 0 L 5.375 0 C 4.9375 0 4.71875 -0.21875 4.71875 -0.65625 L 4.71875 -34.546875 C 4.71875 -34.984375 4.9375 -35.203125 5.375 -35.203125 L 26.84375 -35.203125 C 27.28125 -35.203125 27.5 -34.984375 27.5 -34.546875 Z M 27.5 -32.734375 "/></g></g></g><g fill="#c32b45" fill-opacity="1"><g transform="translate(1018.506731, 682.48129)"><g><path d="M 5.375 0 C 4.9375 0 4.71875 -0.21875 4.71875 -0.65625 L 4.71875 -34.546875 C 4.71875 -34.984375 4.9375 -35.203125 5.375 -35.203125 L 17.09375 -35.203125 C 20.414062 -35.203125 23.054688 -34.328125 25.015625 -32.578125 C 26.972656 -30.835938 27.953125 -28.476562 27.953125 -25.5 L 27.953125 -9.703125 C 27.953125 -6.722656 26.972656 -4.359375 25.015625 -2.609375 C 23.054688 -0.867188 20.414062 0 17.09375 0 Z M 8.296875 -3.375 C 8.296875 -3.207031 8.378906 -3.125 8.546875 -3.125 L 17.25 -3.125 C 19.425781 -3.125 21.160156 -3.757812 22.453125 -5.03125 C 23.742188 -6.300781 24.390625 -8.007812 24.390625 -10.15625 L 24.390625 -24.984375 C 24.390625 -27.171875 23.75 -28.898438 22.46875 -30.171875 C 21.195312 -31.441406 19.457031 -32.078125 17.25 -32.078125 L 8.546875 -32.078125 C 8.378906 -32.078125 8.296875 -31.992188 8.296875 -31.828125 Z M 8.296875 -3.375 "/></g></g></g><g fill="#c32b45" fill-opacity="1"><g transform="translate(1049.582932, 682.48129)"><g><path d="M 27.5 -32.734375 C 27.5 -32.296875 27.28125 -32.078125 26.84375 -32.078125 L 8.546875 -32.078125 C 8.378906 -32.078125 8.296875 -31.992188 8.296875 -31.828125 L 8.296875 -19.515625 C 8.296875 -19.335938 8.378906 -19.25 8.546875 -19.25 L 21.3125 -19.25 C 21.75 -19.25 21.96875 -19.035156 21.96875 -18.609375 L 21.96875 -16.796875 C 21.96875 -16.359375 21.75 -16.140625 21.3125 -16.140625 L 8.546875 -16.140625 C 8.378906 -16.140625 8.296875 -16.054688 8.296875 -15.890625 L 8.296875 -3.375 C 8.296875 -3.207031 8.378906 -3.125 8.546875 -3.125 L 26.84375 -3.125 C 27.28125 -3.125 27.5 -2.90625 27.5 -2.46875 L 27.5 -0.65625 C 27.5 -0.21875 27.28125 0 26.84375 0 L 5.375 0 C 4.9375 0 4.71875 -0.21875 4.71875 -0.65625 L 4.71875 -34.546875 C 4.71875 -34.984375 4.9375 -35.203125 5.375 -35.203125 L 26.84375 -35.203125 C 27.28125 -35.203125 27.5 -34.984375 27.5 -34.546875 Z M 27.5 -32.734375 "/></g></g></g><g fill="#c32b45" fill-opacity="1"><g transform="translate(1080.005446, 682.48129)"><g><path d="M 14.984375 0.40625 C 12.535156 0.40625 10.394531 0.0195312 8.5625 -0.75 C 6.738281 -1.519531 5.332031 -2.617188 4.34375 -4.046875 C 3.351562 -5.472656 2.859375 -7.125 2.859375 -9 L 2.859375 -10.40625 C 2.859375 -10.84375 3.078125 -11.0625 3.515625 -11.0625 L 5.6875 -11.0625 C 6.113281 -11.0625 6.328125 -10.84375 6.328125 -10.40625 L 6.328125 -9.203125 C 6.328125 -7.285156 7.128906 -5.722656 8.734375 -4.515625 C 10.347656 -3.316406 12.515625 -2.71875 15.234375 -2.71875 C 17.816406 -2.71875 19.773438 -3.257812 21.109375 -4.34375 C 22.453125 -5.4375 23.125 -6.890625 23.125 -8.703125 C 23.125 -9.867188 22.8125 -10.867188 22.1875 -11.703125 C 21.570312 -12.546875 20.628906 -13.335938 19.359375 -14.078125 C 18.085938 -14.816406 16.257812 -15.671875 13.875 -16.640625 C 11.363281 -17.648438 9.410156 -18.53125 8.015625 -19.28125 C 6.628906 -20.039062 5.507812 -21.015625 4.65625 -22.203125 C 3.800781 -23.390625 3.375 -24.890625 3.375 -26.703125 C 3.375 -29.515625 4.351562 -31.695312 6.3125 -33.25 C 8.269531 -34.8125 10.976562 -35.59375 14.4375 -35.59375 C 18.125 -35.59375 21.035156 -34.722656 23.171875 -32.984375 C 25.316406 -31.242188 26.390625 -28.929688 26.390625 -26.046875 L 26.390625 -25.09375 C 26.390625 -24.65625 26.175781 -24.4375 25.75 -24.4375 L 23.53125 -24.4375 C 23.09375 -24.4375 22.875 -24.65625 22.875 -25.09375 L 22.875 -25.84375 C 22.875 -27.789062 22.117188 -29.382812 20.609375 -30.625 C 19.109375 -31.863281 16.984375 -32.484375 14.234375 -32.484375 C 11.847656 -32.484375 10.023438 -31.992188 8.765625 -31.015625 C 7.515625 -30.046875 6.890625 -28.640625 6.890625 -26.796875 C 6.890625 -25.585938 7.195312 -24.585938 7.8125 -23.796875 C 8.4375 -23.015625 9.328125 -22.328125 10.484375 -21.734375 C 11.640625 -21.148438 13.40625 -20.390625 15.78125 -19.453125 C 18.226562 -18.453125 20.207031 -17.515625 21.71875 -16.640625 C 23.226562 -15.765625 24.4375 -14.695312 25.34375 -13.4375 C 26.25 -12.1875 26.703125 -10.65625 26.703125 -8.84375 C 26.703125 -6.0625 25.671875 -3.820312 23.609375 -2.125 C 21.546875 -0.4375 18.671875 0.40625 14.984375 0.40625 Z M 14.984375 0.40625 "/></g></g></g><g fill="#c32b45" fill-opacity="1"><g transform="translate(1109.472516, 682.48129)"><g/></g></g><g fill="#c32b45" fill-opacity="1"><g transform="translate(1119.529584, 682.48129)"><g><path d="M 5.375 0 C 4.9375 0 4.71875 -0.21875 4.71875 -0.65625 L 4.71875 -34.546875 C 4.71875 -34.984375 4.9375 -35.203125 5.375 -35.203125 L 7.640625 -35.203125 C 7.941406 -35.203125 8.191406 -35.050781 8.390625 -34.75 L 25.296875 -7.390625 C 25.359375 -7.285156 25.421875 -7.242188 25.484375 -7.265625 C 25.554688 -7.285156 25.59375 -7.359375 25.59375 -7.484375 L 25.59375 -34.546875 C 25.59375 -34.984375 25.8125 -35.203125 26.25 -35.203125 L 28.515625 -35.203125 C 28.941406 -35.203125 29.15625 -34.984375 29.15625 -34.546875 L 29.15625 -0.65625 C 29.15625 -0.21875 28.941406 0 28.515625 0 L 26.25 0 C 25.945312 0 25.695312 -0.148438 25.5 -0.453125 L 8.546875 -27.90625 C 8.484375 -28.007812 8.414062 -28.050781 8.34375 -28.03125 C 8.28125 -28.007812 8.25 -27.9375 8.25 -27.8125 L 8.296875 -0.65625 C 8.296875 -0.21875 8.078125 0 7.640625 0 Z M 5.375 0 "/></g></g></g><g fill="#c32b45" fill-opacity="1"><g transform="translate(1153.371501, 682.48129)"><g><path d="M 27.5 -32.734375 C 27.5 -32.296875 27.28125 -32.078125 26.84375 -32.078125 L 8.546875 -32.078125 C 8.378906 -32.078125 8.296875 -31.992188 8.296875 -31.828125 L 8.296875 -19.515625 C 8.296875 -19.335938 8.378906 -19.25 8.546875 -19.25 L 21.3125 -19.25 C 21.75 -19.25 21.96875 -19.035156 21.96875 -18.609375 L 21.96875 -16.796875 C 21.96875 -16.359375 21.75 -16.140625 21.3125 -16.140625 L 8.546875 -16.140625 C 8.378906 -16.140625 8.296875 -16.054688 8.296875 -15.890625 L 8.296875 -3.375 C 8.296875 -3.207031 8.378906 -3.125 8.546875 -3.125 L 26.84375 -3.125 C 27.28125 -3.125 27.5 -2.90625 27.5 -2.46875 L 27.5 -0.65625 C 27.5 -0.21875 27.28125 0 26.84375 0 L 5.375 0 C 4.9375 0 4.71875 -0.21875 4.71875 -0.65625 L 4.71875 -34.546875 C 4.71875 -34.984375 4.9375 -35.203125 5.375 -35.203125 L 26.84375 -35.203125 C 27.28125 -35.203125 27.5 -34.984375 27.5 -34.546875 Z M 27.5 -32.734375 "/></g></g></g><g fill="#c32b45" fill-opacity="1"><g transform="translate(1183.794015, 682.48129)"><g><path d="M 16.296875 0.40625 C 13.941406 0.40625 11.859375 -0.0625 10.046875 -1 C 8.242188 -1.9375 6.835938 -3.25 5.828125 -4.9375 C 4.828125 -6.632812 4.328125 -8.609375 4.328125 -10.859375 L 4.328125 -34.546875 C 4.328125 -34.984375 4.546875 -35.203125 4.984375 -35.203125 L 7.234375 -35.203125 C 7.671875 -35.203125 7.890625 -34.984375 7.890625 -34.546875 L 7.890625 -10.765625 C 7.890625 -8.378906 8.660156 -6.441406 10.203125 -4.953125 C 11.742188 -3.460938 13.773438 -2.71875 16.296875 -2.71875 C 18.804688 -2.71875 20.832031 -3.460938 22.375 -4.953125 C 23.914062 -6.441406 24.6875 -8.378906 24.6875 -10.765625 L 24.6875 -34.546875 C 24.6875 -34.984375 24.90625 -35.203125 25.34375 -35.203125 L 27.609375 -35.203125 C 28.046875 -35.203125 28.265625 -34.984375 28.265625 -34.546875 L 28.265625 -10.859375 C 28.265625 -8.609375 27.769531 -6.632812 26.78125 -4.9375 C 25.789062 -3.25 24.390625 -1.9375 22.578125 -1 C 20.765625 -0.0625 18.671875 0.40625 16.296875 0.40625 Z M 16.296875 0.40625 "/></g></g></g><g fill="#c32b45" fill-opacity="1"><g transform="translate(1216.378822, 682.48129)"><g><path d="M 25.390625 0 C 25.023438 0 24.757812 -0.164062 24.59375 -0.5 L 17.25 -15.984375 C 17.175781 -16.117188 17.070312 -16.1875 16.9375 -16.1875 L 8.546875 -16.1875 C 8.378906 -16.1875 8.296875 -16.101562 8.296875 -15.9375 L 8.296875 -0.65625 C 8.296875 -0.21875 8.078125 0 7.640625 0 L 5.375 0 C 4.9375 0 4.71875 -0.21875 4.71875 -0.65625 L 4.71875 -34.59375 C 4.71875 -35.03125 4.9375 -35.25 5.375 -35.25 L 18.25 -35.25 C 21.132812 -35.25 23.460938 -34.359375 25.234375 -32.578125 C 27.015625 -30.804688 27.90625 -28.476562 27.90625 -25.59375 C 27.90625 -23.25 27.273438 -21.265625 26.015625 -19.640625 C 24.765625 -18.015625 23.046875 -16.945312 20.859375 -16.4375 C 20.691406 -16.40625 20.644531 -16.304688 20.71875 -16.140625 L 28.203125 -0.75 C 28.273438 -0.613281 28.3125 -0.515625 28.3125 -0.453125 C 28.3125 -0.148438 28.109375 0 27.703125 0 Z M 8.546875 -32.125 C 8.378906 -32.125 8.296875 -32.039062 8.296875 -31.875 L 8.296875 -19.3125 C 8.296875 -19.144531 8.378906 -19.0625 8.546875 -19.0625 L 17.84375 -19.0625 C 19.789062 -19.0625 21.367188 -19.65625 22.578125 -20.84375 C 23.785156 -22.03125 24.390625 -23.597656 24.390625 -25.546875 C 24.390625 -27.484375 23.785156 -29.0625 22.578125 -30.28125 C 21.367188 -31.507812 19.789062 -32.125 17.84375 -32.125 Z M 8.546875 -32.125 "/></g></g></g><g fill="#c32b45" fill-opacity="1"><g transform="translate(1247.153356, 682.48129)"><g><path d="M 15.59375 0.40625 C 13.207031 0.40625 11.109375 -0.078125 9.296875 -1.046875 C 7.492188 -2.023438 6.097656 -3.394531 5.109375 -5.15625 C 4.117188 -6.914062 3.625 -8.953125 3.625 -11.265625 L 3.625 -23.9375 C 3.625 -26.25 4.117188 -28.285156 5.109375 -30.046875 C 6.097656 -31.804688 7.492188 -33.171875 9.296875 -34.140625 C 11.109375 -35.109375 13.207031 -35.59375 15.59375 -35.59375 C 17.96875 -35.59375 20.066406 -35.109375 21.890625 -34.140625 C 23.722656 -33.171875 25.132812 -31.804688 26.125 -30.046875 C 27.113281 -28.285156 27.609375 -26.25 27.609375 -23.9375 L 27.609375 -11.265625 C 27.609375 -8.953125 27.113281 -6.914062 26.125 -5.15625 C 25.132812 -3.394531 23.722656 -2.023438 21.890625 -1.046875 C 20.066406 -0.078125 17.96875 0.40625 15.59375 0.40625 Z M 15.59375 -2.671875 C 18.132812 -2.671875 20.175781 -3.441406 21.71875 -4.984375 C 23.257812 -6.523438 24.03125 -8.566406 24.03125 -11.109375 L 24.03125 -23.984375 C 24.03125 -26.535156 23.257812 -28.585938 21.71875 -30.140625 C 20.175781 -31.703125 18.132812 -32.484375 15.59375 -32.484375 C 13.070312 -32.484375 11.039062 -31.703125 9.5 -30.140625 C 7.957031 -28.585938 7.1875 -26.535156 7.1875 -23.984375 L 7.1875 -11.109375 C 7.1875 -8.566406 7.957031 -6.523438 9.5 -4.984375 C 11.039062 -3.441406 13.070312 -2.671875 15.59375 -2.671875 Z M 15.59375 -2.671875 "/></g></g></g><g fill="#c32b45" fill-opacity="1"><g transform="translate(1278.430699, 682.48129)"><g><path d="M 5.375 0 C 4.9375 0 4.71875 -0.21875 4.71875 -0.65625 L 4.71875 -34.546875 C 4.71875 -34.984375 4.9375 -35.203125 5.375 -35.203125 L 7.640625 -35.203125 C 7.941406 -35.203125 8.191406 -35.050781 8.390625 -34.75 L 25.296875 -7.390625 C 25.359375 -7.285156 25.421875 -7.242188 25.484375 -7.265625 C 25.554688 -7.285156 25.59375 -7.359375 25.59375 -7.484375 L 25.59375 -34.546875 C 25.59375 -34.984375 25.8125 -35.203125 26.25 -35.203125 L 28.515625 -35.203125 C 28.941406 -35.203125 29.15625 -34.984375 29.15625 -34.546875 L 29.15625 -0.65625 C 29.15625 -0.21875 28.941406 0 28.515625 0 L 26.25 0 C 25.945312 0 25.695312 -0.148438 25.5 -0.453125 L 8.546875 -27.90625 C 8.484375 -28.007812 8.414062 -28.050781 8.34375 -28.03125 C 8.28125 -28.007812 8.25 -27.9375 8.25 -27.8125 L 8.296875 -0.65625 C 8.296875 -0.21875 8.078125 0 7.640625 0 Z M 5.375 0 "/></g></g></g><g fill="#c32b45" fill-opacity="1"><g transform="translate(1312.272616, 682.48129)"><g><path d="M 25.6875 0 C 25.320312 0 25.085938 -0.179688 24.984375 -0.546875 L 22.984375 -6.6875 C 22.910156 -6.820312 22.828125 -6.890625 22.734375 -6.890625 L 7.75 -6.890625 C 7.644531 -6.890625 7.554688 -6.820312 7.484375 -6.6875 L 5.53125 -0.546875 C 5.425781 -0.179688 5.191406 0 4.828125 0 L 2.40625 0 C 2.175781 0 2.007812 -0.0664062 1.90625 -0.203125 C 1.8125 -0.335938 1.796875 -0.519531 1.859375 -0.75 L 12.921875 -34.640625 C 13.023438 -35.015625 13.257812 -35.203125 13.625 -35.203125 L 16.84375 -35.203125 C 17.207031 -35.203125 17.441406 -35.015625 17.546875 -34.640625 L 28.65625 -0.75 C 28.6875 -0.6875 28.703125 -0.601562 28.703125 -0.5 C 28.703125 -0.363281 28.644531 -0.242188 28.53125 -0.140625 C 28.414062 -0.046875 28.273438 0 28.109375 0 Z M 8.59375 -10.109375 C 8.5625 -9.910156 8.628906 -9.8125 8.796875 -9.8125 L 21.71875 -9.8125 C 21.914062 -9.8125 21.984375 -9.910156 21.921875 -10.109375 L 15.390625 -30.671875 C 15.347656 -30.804688 15.296875 -30.875 15.234375 -30.875 C 15.171875 -30.875 15.117188 -30.804688 15.078125 -30.671875 Z M 8.59375 -10.109375 "/></g></g></g><g fill="#c32b45" fill-opacity="1"><g transform="translate(1342.795747, 682.48129)"><g><path d="M 5.375 0 C 4.9375 0 4.71875 -0.21875 4.71875 -0.65625 L 4.71875 -34.546875 C 4.71875 -34.984375 4.9375 -35.203125 5.375 -35.203125 L 7.640625 -35.203125 C 8.078125 -35.203125 8.296875 -34.984375 8.296875 -34.546875 L 8.296875 -3.375 C 8.296875 -3.207031 8.378906 -3.125 8.546875 -3.125 L 26.09375 -3.125 C 26.53125 -3.125 26.75 -2.90625 26.75 -2.46875 L 26.75 -0.65625 C 26.75 -0.21875 26.53125 0 26.09375 0 Z M 5.375 0 "/></g></g></g><g fill="#c32b45" fill-opacity="1"><g transform="translate(1371.357727, 682.48129)"><g><path d="M 27.5 -32.734375 C 27.5 -32.296875 27.28125 -32.078125 26.84375 -32.078125 L 8.546875 -32.078125 C 8.378906 -32.078125 8.296875 -31.992188 8.296875 -31.828125 L 8.296875 -19.515625 C 8.296875 -19.335938 8.378906 -19.25 8.546875 -19.25 L 21.3125 -19.25 C 21.75 -19.25 21.96875 -19.035156 21.96875 -18.609375 L 21.96875 -16.796875 C 21.96875 -16.359375 21.75 -16.140625 21.3125 -16.140625 L 8.546875 -16.140625 C 8.378906 -16.140625 8.296875 -16.054688 8.296875 -15.890625 L 8.296875 -3.375 C 8.296875 -3.207031 8.378906 -3.125 8.546875 -3.125 L 26.84375 -3.125 C 27.28125 -3.125 27.5 -2.90625 27.5 -2.46875 L 27.5 -0.65625 C 27.5 -0.21875 27.28125 0 26.84375 0 L 5.375 0 C 4.9375 0 4.71875 -0.21875 4.71875 -0.65625 L 4.71875 -34.546875 C 4.71875 -34.984375 4.9375 -35.203125 5.375 -35.203125 L 26.84375 -35.203125 C 27.28125 -35.203125 27.5 -34.984375 27.5 -34.546875 Z M 27.5 -32.734375 "/></g></g></g><g fill="#c32b45" fill-opacity="1"><g transform="translate(1401.780241, 682.48129)"><g><path d="M 14.984375 0.40625 C 12.535156 0.40625 10.394531 0.0195312 8.5625 -0.75 C 6.738281 -1.519531 5.332031 -2.617188 4.34375 -4.046875 C 3.351562 -5.472656 2.859375 -7.125 2.859375 -9 L 2.859375 -10.40625 C 2.859375 -10.84375 3.078125 -11.0625 3.515625 -11.0625 L 5.6875 -11.0625 C 6.113281 -11.0625 6.328125 -10.84375 6.328125 -10.40625 L 6.328125 -9.203125 C 6.328125 -7.285156 7.128906 -5.722656 8.734375 -4.515625 C 10.347656 -3.316406 12.515625 -2.71875 15.234375 -2.71875 C 17.816406 -2.71875 19.773438 -3.257812 21.109375 -4.34375 C 22.453125 -5.4375 23.125 -6.890625 23.125 -8.703125 C 23.125 -9.867188 22.8125 -10.867188 22.1875 -11.703125 C 21.570312 -12.546875 20.628906 -13.335938 19.359375 -14.078125 C 18.085938 -14.816406 16.257812 -15.671875 13.875 -16.640625 C 11.363281 -17.648438 9.410156 -18.53125 8.015625 -19.28125 C 6.628906 -20.039062 5.507812 -21.015625 4.65625 -22.203125 C 3.800781 -23.390625 3.375 -24.890625 3.375 -26.703125 C 3.375 -29.515625 4.351562 -31.695312 6.3125 -33.25 C 8.269531 -34.8125 10.976562 -35.59375 14.4375 -35.59375 C 18.125 -35.59375 21.035156 -34.722656 23.171875 -32.984375 C 25.316406 -31.242188 26.390625 -28.929688 26.390625 -26.046875 L 26.390625 -25.09375 C 26.390625 -24.65625 26.175781 -24.4375 25.75 -24.4375 L 23.53125 -24.4375 C 23.09375 -24.4375 22.875 -24.65625 22.875 -25.09375 L 22.875 -25.84375 C 22.875 -27.789062 22.117188 -29.382812 20.609375 -30.625 C 19.109375 -31.863281 16.984375 -32.484375 14.234375 -32.484375 C 11.847656 -32.484375 10.023438 -31.992188 8.765625 -31.015625 C 7.515625 -30.046875 6.890625 -28.640625 6.890625 -26.796875 C 6.890625 -25.585938 7.195312 -24.585938 7.8125 -23.796875 C 8.4375 -23.015625 9.328125 -22.328125 10.484375 -21.734375 C 11.640625 -21.148438 13.40625 -20.390625 15.78125 -19.453125 C 18.226562 -18.453125 20.207031 -17.515625 21.71875 -16.640625 C 23.226562 -15.765625 24.4375 -14.695312 25.34375 -13.4375 C 26.25 -12.1875 26.703125 -10.65625 26.703125 -8.84375 C 26.703125 -6.0625 25.671875 -3.820312 23.609375 -2.125 C 21.546875 -0.4375 18.671875 0.40625 14.984375 0.40625 Z M 14.984375 0.40625 "/></g></g></g></svg>