<svg xmlns="http://www.w3.org/2000/svg" xmlns:xlink="http://www.w3.org/1999/xlink" width="500" zoomAndPan="magnify" viewBox="0 0 375 374.999991" height="500" preserveAspectRatio="xMidYMid meet" version="1.0"><defs><clipPath id="9eb96ff79e"><path d="M 149 99 L 350 99 L 350 282.238281 L 149 282.238281 Z M 149 99 " clip-rule="nonzero"/></clipPath><clipPath id="23f3dcef69"><path d="M 17.144531 119 L 161 119 L 161 237 L 17.144531 237 Z M 17.144531 119 " clip-rule="nonzero"/></clipPath></defs><path fill="#ed1f2f" d="M 187.523438 153.140625 L 196.546875 225.914062 C 192.78125 222.65625 188.621094 219.089844 184.003906 215.117188 C 173.378906 205.984375 165.984375 197.035156 160.867188 188.746094 L 176.332031 188.746094 C 178.070312 188.746094 179.574219 187.546875 179.960938 185.855469 L 187.523438 153.140625 " fill-opacity="1" fill-rule="nonzero"/><g clip-path="url(#9eb96ff79e)"><path fill="#ed1f2f" d="M 314.996094 215.117188 C 272.324219 251.800781 268.851562 254.78125 249.5 282.050781 C 235.019531 261.652344 229.433594 254.84375 209.660156 237.34375 L 225.148438 168.832031 L 242.140625 218.632812 C 242.648438 220.101562 244.007812 221.109375 245.554688 221.152344 C 247.109375 221.207031 248.523438 220.289062 249.121094 218.859375 L 261.585938 188.746094 L 306.066406 188.746094 C 308.121094 188.746094 309.792969 187.074219 309.792969 185.019531 C 309.792969 182.964844 308.121094 181.292969 306.066406 181.292969 L 259.097656 181.292969 C 257.585938 181.292969 256.226562 182.203125 255.652344 183.597656 L 246.011719 206.871094 L 227.953125 153.945312 C 227.414062 152.363281 225.894531 151.347656 224.222656 151.429688 C 222.5625 151.515625 221.152344 152.703125 220.789062 154.324219 L 204.25 227.460938 L 192.332031 131.316406 C 192.109375 129.53125 190.632812 128.152344 188.828125 128.054688 C 187.039062 127.957031 185.40625 129.179688 185.003906 130.9375 L 173.363281 181.292969 L 156.773438 181.292969 C 146.476562 160.054688 150.761719 144.722656 150.761719 144.722656 C 150.761719 144.722656 152.246094 109.519531 192.4375 101.09375 C 232.628906 92.667969 249.5 130.34375 249.5 130.34375 C 249.5 130.34375 266.367188 92.667969 306.558594 101.09375 C 346.753906 109.519531 348.238281 144.722656 348.238281 144.722656 C 348.238281 144.722656 357.671875 178.433594 314.996094 215.117188 " fill-opacity="1" fill-rule="nonzero"/></g><g clip-path="url(#23f3dcef69)"><path fill="#ec1d27" d="M 156.773438 181.292969 C 157.9375 183.707031 159.292969 186.195312 160.867188 188.746094 L 145.351562 188.746094 L 133.964844 218.753906 C 133.359375 220.339844 131.757812 221.324219 130.074219 221.128906 C 128.378906 220.945312 127.03125 219.640625 126.78125 217.964844 L 120.921875 177.128906 L 109.527344 233.914062 C 109.179688 235.65625 107.644531 236.910156 105.875 236.910156 L 105.808594 236.910156 C 104.011719 236.878906 102.492188 235.570312 102.195312 233.796875 C 97.003906 202.75 88.832031 156.140625 84.378906 135.269531 C 80.503906 148.367188 74.417969 170.632812 70.332031 185.972656 C 69.898438 187.605469 68.414062 188.746094 66.730469 188.746094 L 20.875 188.746094 C 18.816406 188.746094 17.144531 187.074219 17.144531 185.019531 C 17.144531 182.964844 18.816406 181.292969 20.875 181.292969 L 63.867188 181.292969 C 68.960938 162.207031 79.308594 124.09375 81.523438 120.769531 C 82.410156 119.441406 83.984375 118.796875 85.535156 119.125 C 88.300781 119.71875 88.964844 122.378906 90.070312 126.78125 C 90.808594 129.734375 91.746094 134.023438 92.871094 139.527344 C 94.742188 148.738281 97.144531 161.53125 100.015625 177.539062 C 102.265625 190.109375 104.457031 202.734375 106.175781 212.71875 L 117.875 154.414062 C 118.230469 152.640625 119.820312 151.367188 121.632812 151.429688 C 123.449219 151.480469 124.964844 152.828125 125.21875 154.625 L 132.113281 202.609375 L 139.296875 183.691406 C 139.839844 182.25 141.234375 181.292969 142.777344 181.292969 L 156.773438 181.292969 " fill-opacity="1" fill-rule="nonzero"/></g><path fill="#ec1d27" d="M 209.660156 237.34375 L 206.8125 249.933594 C 206.425781 251.636719 204.914062 252.839844 203.175781 252.839844 C 203.113281 252.839844 203.054688 252.839844 202.988281 252.832031 C 201.175781 252.742188 199.699219 251.371094 199.476562 249.566406 L 196.546875 225.914062 C 201.550781 230.234375 205.867188 233.992188 209.660156 237.34375 " fill-opacity="1" fill-rule="nonzero"/></svg>